<svg xmlns="http://www.w3.org/2000/svg" viewBox="0 0 800 800">
  <defs>
    <linearGradient id="bg" x1="0" y1="0" x2="0" y2="1">
      <stop offset="0" stop-color="#1c1917"/>
      <stop offset="1" stop-color="#3a2f27"/>
    </linearGradient>
    <radialGradient id="warm" cx="0.5" cy="0.5" r="0.5">
      <stop offset="0" stop-color="#fbbf77" stop-opacity="0.35"/>
      <stop offset="1" stop-color="#fbbf77" stop-opacity="0"/>
    </radialGradient>
    <linearGradient id="table" x1="0" y1="0" x2="0" y2="1">
      <stop offset="0" stop-color="#6b4a33"/>
      <stop offset="1" stop-color="#2a1c12"/>
    </linearGradient>
    <linearGradient id="bowl" x1="0" y1="0" x2="1" y2="0">
      <stop offset="0" stop-color="#e7e5e4"/>
      <stop offset="0.5" stop-color="#ffffff"/>
      <stop offset="1" stop-color="#d6d3d1"/>
    </linearGradient>
  </defs>
  <rect width="800" height="800" fill="url(#bg)"/>
  <circle cx="400" cy="330" r="320" fill="url(#warm)"/>
  <rect y="430" width="800" height="370" fill="url(#table)"/>
  <ellipse cx="400" cy="440" rx="230" ry="40" fill="#e7e5e4" opacity="0.9"/>
  <ellipse cx="400" cy="436" rx="200" ry="30" fill="#f5f5f4"/>
  <g fill="none" stroke="#f5f5f4" stroke-width="7" stroke-linecap="round" opacity="0.45">
    <path d="M350 250 c-20 -30 20 -40 0 -80"/>
    <path d="M400 236 c-20 -30 20 -40 0 -80"/>
    <path d="M450 250 c-20 -30 20 -40 0 -80"/>
  </g>
  <path d="M250 330 h300 c0 70 -60 110 -150 110 s-150 -40 -150 -110z" fill="url(#bowl)"/>
  <ellipse cx="400" cy="330" rx="150" ry="26" fill="#fafaf9"/>
  <ellipse cx="400" cy="332" rx="138" ry="20" fill="#d97706"/>
  <g>
    <circle cx="350" cy="326" r="18" fill="#65a30d"/>
    <circle cx="380" cy="336" r="14" fill="#f97316"/>
    <circle cx="420" cy="322" r="16" fill="#fef3c7"/>
    <circle cx="452" cy="334" r="15" fill="#16a34a"/>
    <circle cx="470" cy="322" r="11" fill="#dc2626"/>
    <circle cx="330" cy="338" r="10" fill="#fbbf24"/>
  </g>
  <g fill="#d6d3d1">
    <rect x="590" y="300" width="12" height="160" rx="6" transform="rotate(10 596 380)"/>
    <rect x="612" y="300" width="12" height="160" rx="6" transform="rotate(14 618 380)"/>
  </g>
  <g transform="translate(170 300)">
    <rect x="-6" y="0" width="12" height="150" rx="6" fill="#a8a29e"/>
    <rect x="-18" y="0" width="5" height="40" rx="2.5" fill="#a8a29e"/>
    <rect x="13" y="0" width="5" height="40" rx="2.5" fill="#a8a29e"/>
    <rect x="-18" y="36" width="36" height="12" rx="6" fill="#a8a29e"/>
  </g>
</svg>
